<svg width="26" height="26" viewBox="0 0 26 26" fill="none" xmlns="http://www.w3.org/2000/svg">
<path d="M13 3V4.11638M9.80971 19.5593C11.9299 19.8076 14.0701 19.8076 16.1903 19.5593C16.1753 19.7742 16.1429 19.9875 16.0935 20.1969L16.0061 20.5673C15.7321 21.7277 14.8619 22.6309 13.7508 22.9077C13.2572 23.0308 12.7428 23.0308 12.2492 22.9077C11.1381 22.6309 10.2679 21.7277 9.99394 20.5673L9.90651 20.1969C9.85707 19.9875 9.82471 19.7742 9.80971 19.5593ZM6.62965 9.25843C7.22093 6.98526 8.89335 5.17027 11.0356 4.44692C12.3522 4.00235 13.7839 4.00161 15.0982 4.45375C17.2025 5.17766 18.8133 6.9676 19.3779 9.20927L20 11.6791L20.4985 14.0306C20.652 14.7548 20.8609 15.4998 20.971 16.2326C20.9901 16.3597 21 16.49 21 16.6226C21 17.8074 20.2026 18.8281 19.0932 19.0635L18.7011 19.1467C14.9387 19.9452 11.0613 19.9452 7.29886 19.1467L6.90676 19.0635C5.79738 18.8281 5 17.8074 5 16.6226C5 16.49 5.00991 16.3597 5.02901 16.2326C5.13913 15.4998 5.34801 14.7548 5.50154 14.0306L6 11.6791L6.62965 9.25843Z" stroke="white" stroke-width="1.5" stroke-linecap="round"/>
</svg>
