<svg width="36" height="32" viewBox="0 0 36 32" fill="none" xmlns="http://www.w3.org/2000/svg">
<path d="M4.34015 18.2963L17.319 30.3667C17.642 30.667 17.8034 30.8172 18 30.8172C18.1966 30.8172 18.358 30.667 18.681 30.3667L31.6599 18.2963L31.66 18.2962C31.9257 18.0491 32.0585 17.9256 32.1695 17.8149C35.3116 14.6818 35.7012 9.72611 33.0874 6.14041C32.9951 6.01373 32.8832 5.8709 32.6593 5.58524L32.1461 4.93045C28.5577 0.351665 21.4109 1.12473 18.8847 6.36494C18.5275 7.10576 17.4725 7.10576 17.1153 6.36494C14.5891 1.12473 7.44227 0.351663 3.85388 4.93045L3.34072 5.58524L3.34068 5.5853C3.11683 5.87092 3.00491 6.01374 2.91257 6.14041C0.298797 9.72611 0.688442 14.6818 3.83049 17.8149C3.94147 17.9256 4.07431 18.0491 4.33992 18.2961L4.34015 18.2963Z" stroke="white" stroke-width="2"/>
</svg>
